<?xml version="1.0" encoding="utf-8"?>
<!-- Generator: Adobe Illustrator 23.1.0, SVG Export Plug-In . SVG Version: 6.00 Build 0)  -->
<svg version="1.1" id="Layer_1" xmlns="http://www.w3.org/2000/svg" xmlns:xlink="http://www.w3.org/1999/xlink" x="0px" y="0px"
	 viewBox="0 0 459 202.2" style="enable-background:new 0 0 459 202.2;" xml:space="preserve">
<style type="text/css">
	.st0{fill:#E42212;}
	.st1{fill:#EC6606;}
</style>
<g>
	<g>
		<path class="st0" d="M426.2,21.9l-6.2-17.5c-1.1-3.2-4.6-4.8-7.7-3.7c-3.2,1.1-4.8,4.6-3.7,7.7l6.5,18.4l7.8,4.4L426.2,21.9z"/>
		<path class="st1" d="M437.3,26.9l6.5-18.4c1.1-3.2-0.5-6.6-3.7-7.7c-3.2-1.1-6.6,0.5-7.7,3.7l-6.2,17.5l3.3,9.4L437.3,26.9z"/>
		<path class="st0" d="M458.2,22c-1.7-2.9-5.4-3.9-8.3-2.3l-12.6,7.1l-3.4,9.7l6.6,2.5l15.4-8.7C458.8,28.6,459.8,24.9,458.2,22z"/>
		<path class="st1" d="M432.3,48.9l13.2,5c0.7,0.3,1.4,0.4,2.1,0.4c2.5,0,4.8-1.5,5.7-3.9c1.2-3.1-0.4-6.6-3.5-7.8l-9.2-3.5
			l-8.2,4.6V48.9z"/>
		<path class="st0" d="M420.2,48.9v9.6c0,3.3,2.7,6.1,6.1,6.1c3.3,0,6.1-2.7,6.1-6.1v-9.6l-6.1-2.3L420.2,48.9z"/>
		<path class="st0" d="M412,39l-9.2,3.5c-3.1,1.2-4.7,4.7-3.5,7.8c0.9,2.4,3.2,3.9,5.7,3.9c0.7,0,1.4-0.1,2.1-0.4l13.2-5v-5.2
			L412,39z"/>
		<path class="st1" d="M415.1,26.9l-12.6-7.1c-2.9-1.7-6.6-0.6-8.3,2.3c-1.6,2.9-0.6,6.6,2.3,8.3L412,39l6.6-2.5L415.1,26.9z"/>
		<path class="st0" d="M197.1,200.6c21.4,0,40.8-9,54.6-23.3c9.2-9.5,16.1-21.4,19.6-34.7l23.9,44.8c3.7,7,10.9,11.3,18.8,11.3
			c7.9,0,15.1-4.4,18.8-11.3L391.1,78c5.5-10.4,1.6-23.3-8.8-28.9c-10.4-5.5-23.4-1.6-28.9,8.8l-37.6,73.2l-1.8,6l-1.7-6l-37.6-73.2
			c-5.5-10.4-18.5-14.4-28.9-8.8c-10.4,5.5-14.4,18.5-8.8,28.9l14,26.4h-43.3c-9.8,0-17.8,8.2-17.8,18.3c0,10.1,8,18.3,17.8,18.3
			H229c-5.8,8.9-15.6,17.5-32,17.5c-9.5,0-18-3.9-24.5-10.5c-6.4-6.6-10.4-15.8-10.4-26.1c0-18,12.3-32.5,27.6-35.8
			c11.3-2.5,18.5-13.8,16-25.1c-1.5-6.7-6-11.9-11.8-14.6c-8.4-3.7-18.7,0-18.7,0c-32.3,9.7-55.2,40.1-55.2,75.5
			c0,4.6,0.4,9.1,1.1,13.4c-6.7,11.1-19.4,25-40.7,25c-20.4,0-37.2-16.8-37.2-37.7c0-18.6,13.3-33.9,30.5-37.1c0,0,4.3-0.8,11.3-1.4
			c6.7-0.6,16.4-8.4,16.4-20.2c0-11.6-9.4-21-21-21C36.6,43,1.4,78.8,1.3,122.7c0.1,43.9,35.3,79.7,79.3,79.8
			c23.9,0,45.2-10.6,59.7-27.4C140.3,175.1,160.6,200.6,197.1,200.6z"/>
	</g>
</g>
</svg>
